<mxfile host="65bd71144e" modified="2020-12-18T18:59:32.153Z" agent="5.0 (X11; Linux x86_64) AppleWebKit/537.36 (KHTML, like Gecko) Code/1.52.0 Chrome/83.0.4103.122 Electron/9.3.5 Safari/537.36" etag="x3jh1pSqQ9pZ0xzS9ziY" version="13.10.0" type="embed">
    <diagram id="KxM7w4psHqKOjU6CR3UP" name="Page-1">
        <mxGraphModel dx="1118" dy="798" grid="1" gridSize="10" guides="1" tooltips="1" connect="1" arrows="1" fold="1" page="1" pageScale="1" pageWidth="850" pageHeight="1100" math="0" shadow="0">
            <root>
                <mxCell id="0"/>
                <mxCell id="1" parent="0"/>
                <mxCell id="2" value="" style="rounded=0;whiteSpace=wrap;html=1;" parent="1" vertex="1">
                    <mxGeometry x="30" y="110" width="770" height="480" as="geometry"/>
                </mxCell>
                <mxCell id="3" value="some sorta title-ish thing" style="rounded=0;whiteSpace=wrap;html=1;" parent="1" vertex="1">
                    <mxGeometry x="40" y="120" width="750" height="60" as="geometry"/>
                </mxCell>
                <mxCell id="30" value="directions" style="rounded=0;whiteSpace=wrap;html=1;" vertex="1" parent="1">
                    <mxGeometry x="430" y="310" width="260" height="90" as="geometry"/>
                </mxCell>
                <mxCell id="31" value="name" style="rounded=0;whiteSpace=wrap;html=1;" vertex="1" parent="1">
                    <mxGeometry x="100" y="210" width="120" height="60" as="geometry"/>
                </mxCell>
                <mxCell id="32" value="tags: input text: autofilter, multiselect," style="rounded=0;whiteSpace=wrap;html=1;" vertex="1" parent="1">
                    <mxGeometry x="70" y="350" width="240" height="60" as="geometry"/>
                </mxCell>
            </root>
        </mxGraphModel>
    </diagram>
</mxfile>